<mxfile host="app.diagrams.net" modified="2023-10-16T01:02:15.079Z" agent="Mozilla/5.0 (Windows NT 10.0; Win64; x64) AppleWebKit/537.36 (KHTML, like Gecko) Chrome/118.0.0.0 Safari/537.36" etag="VrB-jfTOT3EB2AkC2Nke" version="22.0.4" type="github">
  <diagram id="C5RBs43oDa-KdzZeNtuy" name="Page-1">
    <mxGraphModel dx="954" dy="570" grid="1" gridSize="10" guides="1" tooltips="1" connect="1" arrows="1" fold="1" page="1" pageScale="1" pageWidth="827" pageHeight="1169" math="0" shadow="0">
      <root>
        <mxCell id="WIyWlLk6GJQsqaUBKTNV-0" />
        <mxCell id="WIyWlLk6GJQsqaUBKTNV-1" parent="WIyWlLk6GJQsqaUBKTNV-0" />
        <mxCell id="IwjaBMn6ECAyxygDS1hO-0" style="edgeStyle=orthogonalEdgeStyle;rounded=0;orthogonalLoop=1;jettySize=auto;html=1;exitX=0.5;exitY=1;exitDx=0;exitDy=0;" edge="1" parent="WIyWlLk6GJQsqaUBKTNV-1" source="IwjaBMn6ECAyxygDS1hO-1">
          <mxGeometry relative="1" as="geometry">
            <mxPoint x="435" y="460" as="targetPoint" />
          </mxGeometry>
        </mxCell>
        <mxCell id="IwjaBMn6ECAyxygDS1hO-1" value="infut bilangan" style="shape=parallelogram;html=1;strokeWidth=2;perimeter=parallelogramPerimeter;whiteSpace=wrap;rounded=1;arcSize=12;size=0.23;" vertex="1" parent="WIyWlLk6GJQsqaUBKTNV-1">
          <mxGeometry x="370" y="350" width="130" height="60" as="geometry" />
        </mxCell>
        <mxCell id="IwjaBMn6ECAyxygDS1hO-2" value="bilangan mod 2 == 0" style="strokeWidth=2;html=1;shape=mxgraph.flowchart.decision;whiteSpace=wrap;" vertex="1" parent="WIyWlLk6GJQsqaUBKTNV-1">
          <mxGeometry x="370" y="460" width="130" height="100" as="geometry" />
        </mxCell>
        <mxCell id="IwjaBMn6ECAyxygDS1hO-3" value="output bilangan ganjil" style="shape=parallelogram;html=1;strokeWidth=2;perimeter=parallelogramPerimeter;whiteSpace=wrap;rounded=1;arcSize=12;size=0.23;" vertex="1" parent="WIyWlLk6GJQsqaUBKTNV-1">
          <mxGeometry x="200" y="600" width="160" height="60" as="geometry" />
        </mxCell>
        <mxCell id="IwjaBMn6ECAyxygDS1hO-4" value="output bilangan genap" style="shape=parallelogram;html=1;strokeWidth=2;perimeter=parallelogramPerimeter;whiteSpace=wrap;rounded=1;arcSize=12;size=0.23;" vertex="1" parent="WIyWlLk6GJQsqaUBKTNV-1">
          <mxGeometry x="500" y="600" width="170" height="60" as="geometry" />
        </mxCell>
        <mxCell id="IwjaBMn6ECAyxygDS1hO-5" style="edgeStyle=orthogonalEdgeStyle;rounded=0;orthogonalLoop=1;jettySize=auto;html=1;exitX=0;exitY=0.5;exitDx=0;exitDy=0;exitPerimeter=0;entryX=0.427;entryY=-0.083;entryDx=0;entryDy=0;entryPerimeter=0;" edge="1" parent="WIyWlLk6GJQsqaUBKTNV-1" source="IwjaBMn6ECAyxygDS1hO-2" target="IwjaBMn6ECAyxygDS1hO-3">
          <mxGeometry relative="1" as="geometry" />
        </mxCell>
        <mxCell id="IwjaBMn6ECAyxygDS1hO-6" value="no" style="edgeLabel;html=1;align=center;verticalAlign=middle;resizable=0;points=[];" vertex="1" connectable="0" parent="IwjaBMn6ECAyxygDS1hO-5">
          <mxGeometry x="-0.427" y="2" relative="1" as="geometry">
            <mxPoint as="offset" />
          </mxGeometry>
        </mxCell>
        <mxCell id="IwjaBMn6ECAyxygDS1hO-7" style="edgeStyle=orthogonalEdgeStyle;rounded=0;orthogonalLoop=1;jettySize=auto;html=1;exitX=1;exitY=0.5;exitDx=0;exitDy=0;exitPerimeter=0;entryX=0.675;entryY=0.017;entryDx=0;entryDy=0;entryPerimeter=0;" edge="1" parent="WIyWlLk6GJQsqaUBKTNV-1" source="IwjaBMn6ECAyxygDS1hO-2" target="IwjaBMn6ECAyxygDS1hO-4">
          <mxGeometry relative="1" as="geometry" />
        </mxCell>
        <mxCell id="IwjaBMn6ECAyxygDS1hO-8" value="yes" style="edgeLabel;html=1;align=center;verticalAlign=middle;resizable=0;points=[];" vertex="1" connectable="0" parent="IwjaBMn6ECAyxygDS1hO-7">
          <mxGeometry x="-0.3646" relative="1" as="geometry">
            <mxPoint as="offset" />
          </mxGeometry>
        </mxCell>
        <mxCell id="IwjaBMn6ECAyxygDS1hO-9" value="end" style="strokeWidth=2;html=1;shape=mxgraph.flowchart.terminator;whiteSpace=wrap;" vertex="1" parent="WIyWlLk6GJQsqaUBKTNV-1">
          <mxGeometry x="385" y="700" width="100" height="60" as="geometry" />
        </mxCell>
        <mxCell id="IwjaBMn6ECAyxygDS1hO-10" style="edgeStyle=orthogonalEdgeStyle;rounded=0;orthogonalLoop=1;jettySize=auto;html=1;exitX=0.5;exitY=1;exitDx=0;exitDy=0;entryX=0.5;entryY=0;entryDx=0;entryDy=0;entryPerimeter=0;" edge="1" parent="WIyWlLk6GJQsqaUBKTNV-1" source="IwjaBMn6ECAyxygDS1hO-4" target="IwjaBMn6ECAyxygDS1hO-9">
          <mxGeometry relative="1" as="geometry" />
        </mxCell>
        <mxCell id="IwjaBMn6ECAyxygDS1hO-11" style="edgeStyle=orthogonalEdgeStyle;rounded=0;orthogonalLoop=1;jettySize=auto;html=1;exitX=0.5;exitY=1;exitDx=0;exitDy=0;entryX=0.5;entryY=0;entryDx=0;entryDy=0;entryPerimeter=0;" edge="1" parent="WIyWlLk6GJQsqaUBKTNV-1" source="IwjaBMn6ECAyxygDS1hO-3" target="IwjaBMn6ECAyxygDS1hO-9">
          <mxGeometry relative="1" as="geometry" />
        </mxCell>
        <mxCell id="IwjaBMn6ECAyxygDS1hO-12" style="edgeStyle=orthogonalEdgeStyle;rounded=0;orthogonalLoop=1;jettySize=auto;html=1;exitX=0.5;exitY=1;exitDx=0;exitDy=0;" edge="1" parent="WIyWlLk6GJQsqaUBKTNV-1" source="IwjaBMn6ECAyxygDS1hO-13">
          <mxGeometry relative="1" as="geometry">
            <mxPoint x="440" y="350" as="targetPoint" />
          </mxGeometry>
        </mxCell>
        <mxCell id="IwjaBMn6ECAyxygDS1hO-13" value="integer bilangan" style="shape=internalStorage;whiteSpace=wrap;html=1;dx=15;dy=15;rounded=1;arcSize=8;strokeWidth=2;" vertex="1" parent="WIyWlLk6GJQsqaUBKTNV-1">
          <mxGeometry x="380" y="240" width="120" height="70" as="geometry" />
        </mxCell>
        <mxCell id="IwjaBMn6ECAyxygDS1hO-14" style="edgeStyle=orthogonalEdgeStyle;rounded=0;orthogonalLoop=1;jettySize=auto;html=1;exitX=0.5;exitY=1;exitDx=0;exitDy=0;exitPerimeter=0;entryX=0.5;entryY=0;entryDx=0;entryDy=0;" edge="1" parent="WIyWlLk6GJQsqaUBKTNV-1" target="IwjaBMn6ECAyxygDS1hO-13">
          <mxGeometry relative="1" as="geometry">
            <mxPoint x="440" y="205" as="sourcePoint" />
          </mxGeometry>
        </mxCell>
        <mxCell id="IwjaBMn6ECAyxygDS1hO-15" value="start" style="strokeWidth=2;html=1;shape=mxgraph.flowchart.terminator;whiteSpace=wrap;" vertex="1" parent="WIyWlLk6GJQsqaUBKTNV-1">
          <mxGeometry x="390" y="150" width="100" height="60" as="geometry" />
        </mxCell>
      </root>
    </mxGraphModel>
  </diagram>
</mxfile>
